<mxfile host="Electron" agent="Mozilla/5.0 (Windows NT 10.0; Win64; x64) AppleWebKit/537.36 (KHTML, like Gecko) draw.io/24.7.17 Chrome/128.0.6613.36 Electron/32.0.1 Safari/537.36" version="24.7.17">
  <diagram id="C5RBs43oDa-KdzZeNtuy" name="Page-1">
    <mxGraphModel dx="1050" dy="621" grid="1" gridSize="10" guides="1" tooltips="1" connect="1" arrows="1" fold="1" page="1" pageScale="1" pageWidth="827" pageHeight="1169" math="0" shadow="0">
      <root>
        <mxCell id="WIyWlLk6GJQsqaUBKTNV-0" />
        <mxCell id="WIyWlLk6GJQsqaUBKTNV-1" parent="WIyWlLk6GJQsqaUBKTNV-0" />
        <mxCell id="qQ978U1SW-yDRkSAqVKb-0" value="start&lt;div&gt;&lt;br&gt;&lt;/div&gt;" style="ellipse;whiteSpace=wrap;html=1;" vertex="1" parent="WIyWlLk6GJQsqaUBKTNV-1">
          <mxGeometry x="294" y="50" width="120" height="80" as="geometry" />
        </mxCell>
        <mxCell id="qQ978U1SW-yDRkSAqVKb-28" style="edgeStyle=orthogonalEdgeStyle;rounded=0;orthogonalLoop=1;jettySize=auto;html=1;" edge="1" parent="WIyWlLk6GJQsqaUBKTNV-1" source="qQ978U1SW-yDRkSAqVKb-1">
          <mxGeometry relative="1" as="geometry">
            <mxPoint x="362" y="260" as="targetPoint" />
          </mxGeometry>
        </mxCell>
        <mxCell id="qQ978U1SW-yDRkSAqVKb-1" value="Input : Nhập a và b&amp;nbsp;" style="shape=parallelogram;perimeter=parallelogramPerimeter;whiteSpace=wrap;html=1;fixedSize=1;" vertex="1" parent="WIyWlLk6GJQsqaUBKTNV-1">
          <mxGeometry x="294" y="170" width="136" height="60" as="geometry" />
        </mxCell>
        <mxCell id="qQ978U1SW-yDRkSAqVKb-6" style="edgeStyle=orthogonalEdgeStyle;rounded=0;orthogonalLoop=1;jettySize=auto;html=1;entryX=0.5;entryY=0;entryDx=0;entryDy=0;" edge="1" parent="WIyWlLk6GJQsqaUBKTNV-1" source="qQ978U1SW-yDRkSAqVKb-2" target="qQ978U1SW-yDRkSAqVKb-5">
          <mxGeometry relative="1" as="geometry" />
        </mxCell>
        <mxCell id="qQ978U1SW-yDRkSAqVKb-11" style="edgeStyle=orthogonalEdgeStyle;rounded=0;orthogonalLoop=1;jettySize=auto;html=1;entryX=0;entryY=0.5;entryDx=0;entryDy=0;" edge="1" parent="WIyWlLk6GJQsqaUBKTNV-1" source="qQ978U1SW-yDRkSAqVKb-2" target="qQ978U1SW-yDRkSAqVKb-8">
          <mxGeometry relative="1" as="geometry" />
        </mxCell>
        <mxCell id="qQ978U1SW-yDRkSAqVKb-22" value="đúng" style="edgeLabel;html=1;align=center;verticalAlign=middle;resizable=0;points=[];" vertex="1" connectable="0" parent="qQ978U1SW-yDRkSAqVKb-11">
          <mxGeometry x="-0.3121" y="4" relative="1" as="geometry">
            <mxPoint as="offset" />
          </mxGeometry>
        </mxCell>
        <mxCell id="qQ978U1SW-yDRkSAqVKb-2" value="a = 0&amp;nbsp;" style="rhombus;whiteSpace=wrap;html=1;direction=south;" vertex="1" parent="WIyWlLk6GJQsqaUBKTNV-1">
          <mxGeometry x="322" y="261" width="80" height="98" as="geometry" />
        </mxCell>
        <mxCell id="qQ978U1SW-yDRkSAqVKb-18" style="edgeStyle=orthogonalEdgeStyle;rounded=0;orthogonalLoop=1;jettySize=auto;html=1;exitX=0.5;exitY=1;exitDx=0;exitDy=0;" edge="1" parent="WIyWlLk6GJQsqaUBKTNV-1">
          <mxGeometry relative="1" as="geometry">
            <mxPoint x="370" y="520" as="targetPoint" />
            <mxPoint x="550" y="330" as="sourcePoint" />
            <Array as="points">
              <mxPoint x="550" y="520" />
            </Array>
          </mxGeometry>
        </mxCell>
        <mxCell id="qQ978U1SW-yDRkSAqVKb-3" value="phương trình vô số nghiệm" style="rounded=0;whiteSpace=wrap;html=1;" vertex="1" parent="WIyWlLk6GJQsqaUBKTNV-1">
          <mxGeometry x="500" y="410" width="120" height="50" as="geometry" />
        </mxCell>
        <mxCell id="qQ978U1SW-yDRkSAqVKb-15" style="edgeStyle=orthogonalEdgeStyle;rounded=0;orthogonalLoop=1;jettySize=auto;html=1;entryX=0.5;entryY=0;entryDx=0;entryDy=0;" edge="1" parent="WIyWlLk6GJQsqaUBKTNV-1" source="qQ978U1SW-yDRkSAqVKb-5" target="qQ978U1SW-yDRkSAqVKb-14">
          <mxGeometry relative="1" as="geometry" />
        </mxCell>
        <mxCell id="qQ978U1SW-yDRkSAqVKb-5" value="x = - b/a" style="rounded=0;whiteSpace=wrap;html=1;" vertex="1" parent="WIyWlLk6GJQsqaUBKTNV-1">
          <mxGeometry x="302" y="430" width="120" height="40" as="geometry" />
        </mxCell>
        <mxCell id="qQ978U1SW-yDRkSAqVKb-7" value="sai&lt;div&gt;&lt;br&gt;&lt;/div&gt;" style="text;html=1;align=center;verticalAlign=middle;resizable=0;points=[];autosize=1;strokeColor=none;fillColor=none;" vertex="1" parent="WIyWlLk6GJQsqaUBKTNV-1">
          <mxGeometry x="350" y="383" width="40" height="40" as="geometry" />
        </mxCell>
        <mxCell id="qQ978U1SW-yDRkSAqVKb-12" style="edgeStyle=orthogonalEdgeStyle;rounded=0;orthogonalLoop=1;jettySize=auto;html=1;entryX=0;entryY=0.5;entryDx=0;entryDy=0;" edge="1" parent="WIyWlLk6GJQsqaUBKTNV-1" source="qQ978U1SW-yDRkSAqVKb-8" target="qQ978U1SW-yDRkSAqVKb-10">
          <mxGeometry relative="1" as="geometry" />
        </mxCell>
        <mxCell id="qQ978U1SW-yDRkSAqVKb-23" value="sai" style="edgeLabel;html=1;align=center;verticalAlign=middle;resizable=0;points=[];" vertex="1" connectable="0" parent="qQ978U1SW-yDRkSAqVKb-12">
          <mxGeometry x="-0.0044" y="1" relative="1" as="geometry">
            <mxPoint as="offset" />
          </mxGeometry>
        </mxCell>
        <mxCell id="qQ978U1SW-yDRkSAqVKb-8" value="b=0" style="rhombus;whiteSpace=wrap;html=1;" vertex="1" parent="WIyWlLk6GJQsqaUBKTNV-1">
          <mxGeometry x="510" y="270" width="80" height="80" as="geometry" />
        </mxCell>
        <mxCell id="qQ978U1SW-yDRkSAqVKb-21" style="edgeStyle=orthogonalEdgeStyle;rounded=0;orthogonalLoop=1;jettySize=auto;html=1;" edge="1" parent="WIyWlLk6GJQsqaUBKTNV-1">
          <mxGeometry relative="1" as="geometry">
            <mxPoint x="370" y="520" as="targetPoint" />
            <mxPoint x="750" y="340" as="sourcePoint" />
            <Array as="points">
              <mxPoint x="750" y="520" />
            </Array>
          </mxGeometry>
        </mxCell>
        <mxCell id="qQ978U1SW-yDRkSAqVKb-10" value="phương trình vô nghiệm&amp;nbsp;" style="rounded=0;whiteSpace=wrap;html=1;" vertex="1" parent="WIyWlLk6GJQsqaUBKTNV-1">
          <mxGeometry x="680" y="280" width="120" height="60" as="geometry" />
        </mxCell>
        <mxCell id="qQ978U1SW-yDRkSAqVKb-13" style="edgeStyle=orthogonalEdgeStyle;rounded=0;orthogonalLoop=1;jettySize=auto;html=1;entryX=0.423;entryY=0.008;entryDx=0;entryDy=0;entryPerimeter=0;" edge="1" parent="WIyWlLk6GJQsqaUBKTNV-1" source="qQ978U1SW-yDRkSAqVKb-8" target="qQ978U1SW-yDRkSAqVKb-3">
          <mxGeometry relative="1" as="geometry" />
        </mxCell>
        <mxCell id="qQ978U1SW-yDRkSAqVKb-24" value="đúng" style="edgeLabel;html=1;align=center;verticalAlign=middle;resizable=0;points=[];" vertex="1" connectable="0" parent="qQ978U1SW-yDRkSAqVKb-13">
          <mxGeometry x="0.0065" y="4" relative="1" as="geometry">
            <mxPoint y="-2" as="offset" />
          </mxGeometry>
        </mxCell>
        <mxCell id="qQ978U1SW-yDRkSAqVKb-14" value="Xuất x" style="shape=parallelogram;perimeter=parallelogramPerimeter;whiteSpace=wrap;html=1;fixedSize=1;" vertex="1" parent="WIyWlLk6GJQsqaUBKTNV-1">
          <mxGeometry x="310" y="555" width="120" height="60" as="geometry" />
        </mxCell>
        <mxCell id="qQ978U1SW-yDRkSAqVKb-16" value="End" style="ellipse;whiteSpace=wrap;html=1;" vertex="1" parent="WIyWlLk6GJQsqaUBKTNV-1">
          <mxGeometry x="310" y="710" width="120" height="80" as="geometry" />
        </mxCell>
        <mxCell id="qQ978U1SW-yDRkSAqVKb-17" style="edgeStyle=orthogonalEdgeStyle;rounded=0;orthogonalLoop=1;jettySize=auto;html=1;entryX=0.433;entryY=0.03;entryDx=0;entryDy=0;entryPerimeter=0;" edge="1" parent="WIyWlLk6GJQsqaUBKTNV-1" source="qQ978U1SW-yDRkSAqVKb-14" target="qQ978U1SW-yDRkSAqVKb-16">
          <mxGeometry relative="1" as="geometry">
            <Array as="points">
              <mxPoint x="360" y="682" />
            </Array>
          </mxGeometry>
        </mxCell>
        <mxCell id="qQ978U1SW-yDRkSAqVKb-25" style="edgeStyle=orthogonalEdgeStyle;rounded=0;orthogonalLoop=1;jettySize=auto;html=1;entryX=0.435;entryY=0.033;entryDx=0;entryDy=0;entryPerimeter=0;" edge="1" parent="WIyWlLk6GJQsqaUBKTNV-1" source="qQ978U1SW-yDRkSAqVKb-0" target="qQ978U1SW-yDRkSAqVKb-1">
          <mxGeometry relative="1" as="geometry" />
        </mxCell>
      </root>
    </mxGraphModel>
  </diagram>
</mxfile>
